<?xml version="1.0" encoding="UTF-8"?>
<svg width="824px" height="824px" viewBox="0 0 824 824" version="1.1" xmlns="http://www.w3.org/2000/svg" xmlns:xlink="http://www.w3.org/1999/xlink">
    <title>AppIcon@1x</title>
    <defs>
        <path d="M0,285.114906 L0,255.353152 C0,219.639047 8.40714286,187.149132 25.2214286,157.883407 C42.0357143,128.617682 64.2,104.560264 91.7142857,85.711153 L41.7926953,29.9078639 C35.7811901,21.9240796 36.7918385,14.1822064 44.8246406,6.68224432 C52.8574427,-0.817717735 60.2596693,-2.0043708 67.0313203,3.12228512 L126.871429,65.6219689 C139.609524,59.6696181 153.494048,55.0813476 168.525,51.8571576 C183.555952,48.6329676 198.714286,47.0208725 214,47.0208725 C229.285714,47.0208725 244.444048,48.6329676 259.475,51.8571576 C274.505952,55.0813476 288.645238,59.6696181 301.892857,65.6219689 L366.092857,3.12228512 C375.414476,-1.12248507 383.390335,0.0641679938 390.020434,6.68224432 C396.882584,13.5319515 398.078154,21.2738247 393.607143,29.9078639 L336.285714,85.711153 C363.8,104.560264 385.964286,128.617682 402.778571,157.883407 C419.592857,187.149132 428,219.639047 428,255.353152 L428,285.114906 L0,285.114906 Z M305.714286,225.591398 C314.37619,225.591398 321.636905,222.73923 327.496429,217.034893 C333.355952,211.330557 336.285714,204.26214 336.285714,195.829643 C336.285714,187.397146 333.355952,180.32873 327.496429,174.624394 C321.636905,168.920057 314.37619,166.067889 305.714286,166.067889 C297.052381,166.067889 289.791667,168.920057 283.932143,174.624394 C278.072619,180.32873 275.142857,187.397146 275.142857,195.829643 C275.142857,204.26214 278.072619,211.330557 283.932143,217.034893 C289.791667,222.73923 297.052381,225.591398 305.714286,225.591398 Z M122.285714,225.591398 C130.947619,225.591398 138.208333,222.73923 144.067857,217.034893 C149.927381,211.330557 152.857143,204.26214 152.857143,195.829643 C152.857143,187.397146 149.927381,180.32873 144.067857,174.624394 C138.208333,168.920057 130.947619,166.067889 122.285714,166.067889 C113.62381,166.067889 106.363095,168.920057 100.503571,174.624394 C94.6440476,180.32873 91.7142857,187.397146 91.7142857,195.829643 C91.7142857,204.26214 94.6440476,211.330557 100.503571,217.034893 C106.363095,222.73923 113.62381,225.591398 122.285714,225.591398 Z M214,643 C154.385714,643 103.815476,622.786809 62.2892857,582.360426 C20.7630952,541.934043 0,492.703141 0,434.667721 L0,314.87666 L428,314.87666 L428,434.667721 C428,492.703141 407.236905,541.934043 365.710714,582.360426 C324.184524,622.786809 273.614286,643 214,643 Z" id="path-1"></path>
        <filter x="-3.3%" y="-2.2%" width="107.5%" height="105.0%" filterUnits="objectBoundingBox" id="filter-2">
            <feOffset dx="2" dy="2" in="SourceAlpha" result="shadowOffsetOuter1"></feOffset>
            <feGaussianBlur stdDeviation="5" in="shadowOffsetOuter1" result="shadowBlurOuter1"></feGaussianBlur>
            <feColorMatrix values="0 0 0 0 0.408033288   0 0 0 0 0.160336556   0 0 0 0 0.160336556  0 0 0 0.5 0" type="matrix" in="shadowBlurOuter1"></feColorMatrix>
        </filter>
        <filter x="-8.0%" y="-6.7%" width="116.0%" height="113.4%" filterUnits="objectBoundingBox" id="filter-3">
            <feOffset dx="1" dy="1" in="SourceAlpha" result="shadowOffsetOuter1"></feOffset>
            <feGaussianBlur stdDeviation="2" in="shadowOffsetOuter1" result="shadowBlurOuter1"></feGaussianBlur>
            <feColorMatrix values="0 0 0 0 0   0 0 0 0 0   0 0 0 0 0  0 0 0 0.5 0" type="matrix" in="shadowBlurOuter1" result="shadowMatrixOuter1"></feColorMatrix>
            <feMerge>
                <feMergeNode in="shadowMatrixOuter1"></feMergeNode>
                <feMergeNode in="SourceGraphic"></feMergeNode>
            </feMerge>
        </filter>
    </defs>
    <g id="ApkViewer/Symbols" stroke="none" stroke-width="1" fill="none" fill-rule="evenodd">
        <g id="AppIcon">
            <rect fill="#F78AAA" x="0" y="0" width="824" height="824"></rect>
            <g id="编组" transform="translate(198.000000, 90.000000)" fill-rule="nonzero">
                <g id="形状">
                    <use fill="black" fill-opacity="1" filter="url(#filter-2)" xlink:href="#path-1"></use>
                    <use fill="#FFFFFF" xlink:href="#path-1"></use>
                </g>
                <g id="Logo---SIWA---Left-aligned---White---Large" filter="url(#filter-3)" transform="translate(148.000000, 355.000000)" fill="#F78AAA">
                    <path d="M67.4445314,36.230769 C74.710938,36.230769 83.8195317,31.4399238 89.2437504,25.0521296 C94.1562501,19.2631915 97.7382817,11.1786396 97.7382817,3.09408771 C97.7382817,1.99618566 97.6359378,0.898283546 97.4312506,0 C89.3460937,0.299427849 79.6234376,5.28989193 73.7898437,11.9771138 C69.1843753,17.0673869 64.9882812,25.0521296 64.9882812,33.2364905 C64.9882812,34.4342023 65.1929691,35.6319134 65.2953124,36.0311507 C65.8070315,36.1309602 66.6257811,36.230769 67.4445314,36.230769 Z M41.8585935,157 C51.7859375,157 56.1867187,150.512397 68.5703129,150.512397 C81.1585943,150.512397 83.9218749,156.800382 94.9750004,156.800382 C105.823438,156.800382 113.089844,147.019072 119.946875,137.437381 C127.622656,126.45836 130.795313,115.678957 131,115.179911 C130.283594,114.980292 109.507813,106.696122 109.507813,83.4405597 C109.507813,63.2790848 125.882813,54.1964399 126.803907,53.4977749 C115.955469,38.3267641 99.4781249,37.9275269 94.9750004,37.9275269 C82.7960941,37.9275269 72.8687502,45.1137956 66.6257811,45.1137956 C59.8710937,45.1137956 50.9671879,38.3267641 40.4257815,38.3267641 C20.3664064,38.3267641 0,54.4958677 0,85.0375081 C0,104.001271 7.57343775,124.062937 16.8867187,137.038143 C24.8695316,148.017165 31.8289063,157 41.8585935,157 Z" id=""></path>
                </g>
            </g>
        </g>
    </g>
</svg>